<svg width="118" height="69" viewBox="0 0 118 69" fill="none" xmlns="http://www.w3.org/2000/svg">
<path d="M70.2061 23.1461C70.2061 29.4428 65.1019 34.547 58.8052 34.547C52.5085 34.547 47.4043 29.4428 47.4043 23.1461C47.4043 15.7531 55.1393 9.71754 57.9889 0.598296C58.2382 -0.199432 59.3722 -0.199432 59.6215 0.598296C62.471 9.71754 70.2061 15.7531 70.2061 23.1461Z" fill="#3291D1"/>
<path d="M57.1888 30.4733C56.9656 31.2648 56.1195 31.7103 55.345 31.4336C55.2084 31.3847 55.0738 31.3299 54.9414 31.2697C54.0647 30.8707 53.8299 29.7331 54.4743 29.0171L54.4909 28.9987C54.9289 28.5119 55.6415 28.3862 56.2202 28.6926C56.2876 28.7283 56.3577 28.7638 56.4302 28.7985C57.0566 29.0982 57.3772 29.8048 57.1888 30.4733Z" fill="white"/>
<path d="M53.0298 27.4899L53.0119 27.5036C52.3465 28.0116 51.3812 27.773 51.03 27.013C50.4875 25.8391 50.1659 24.5764 50.0939 23.3002C49.9754 21.2062 50.529 19.0835 51.6652 17.2734C51.6652 17.2734 50.3408 22.0075 53.2491 25.622C53.7127 26.1982 53.6176 27.0411 53.0298 27.4899Z" fill="white"/>
<path d="M6.08 60.8669C5.05333 60.8669 4.16667 60.6469 3.42 60.2069C2.67333 59.7535 2.1 59.1335 1.7 58.3469C1.31333 57.5469 1.11333 56.6402 1.1 55.6269L3.72 55.4869C3.74667 56.5269 3.96 57.3069 4.36 57.8269C4.77333 58.3469 5.34667 58.6069 6.08 58.6069C6.82667 58.6069 7.40667 58.3469 7.82 57.8269C8.23333 57.2935 8.44 56.5135 8.44 55.4869V46.3469H11.04V55.4869C11.04 56.5802 10.8333 57.5335 10.42 58.3469C10.0067 59.1469 9.42667 59.7669 8.68 60.2069C7.94667 60.6469 7.08 60.8669 6.08 60.8669ZM16.8438 60.7869C15.7238 60.7869 14.8238 60.5335 14.1438 60.0269C13.4638 59.5069 13.1238 58.7869 13.1238 57.8669C13.1238 56.9469 13.4104 56.2269 13.9838 55.7069C14.5571 55.1869 15.4304 54.8135 16.6038 54.5869L20.1438 53.8869C20.1438 53.1269 19.9704 52.5602 19.6238 52.1869C19.2771 51.8002 18.7638 51.6069 18.0838 51.6069C17.4704 51.6069 16.9838 51.7535 16.6238 52.0469C16.2771 52.3269 16.0371 52.7335 15.9038 53.2669L13.3038 53.1469C13.5171 52.0135 14.0371 51.1469 14.8638 50.5469C15.6904 49.9335 16.7638 49.6269 18.0838 49.6269C19.6038 49.6269 20.7504 50.0135 21.5238 50.7869C22.3104 51.5469 22.7038 52.6402 22.7038 54.0669V57.9469C22.7038 58.2269 22.7504 58.4202 22.8438 58.5269C22.9504 58.6335 23.1038 58.6869 23.3038 58.6869H23.6437V60.5469C23.5638 60.5735 23.4304 60.5935 23.2438 60.6069C23.0704 60.6202 22.8904 60.6269 22.7038 60.6269C22.2638 60.6269 21.8704 60.5602 21.5238 60.4269C21.1771 60.2802 20.9104 60.0335 20.7238 59.6869C20.5371 59.3269 20.4438 58.8402 20.4438 58.2269L20.6638 58.3869C20.5571 58.8535 20.3238 59.2735 19.9638 59.6469C19.6171 60.0069 19.1771 60.2869 18.6438 60.4869C18.1104 60.6869 17.5104 60.7869 16.8438 60.7869ZM17.3638 58.9269C17.9371 58.9269 18.4304 58.8135 18.8438 58.5869C19.2571 58.3602 19.5771 58.0469 19.8038 57.6469C20.0304 57.2469 20.1438 56.7735 20.1438 56.2269V55.6269L17.3838 56.1869C16.8104 56.3069 16.3971 56.4869 16.1438 56.7269C15.9038 56.9535 15.7838 57.2535 15.7838 57.6269C15.7838 58.0402 15.9171 58.3602 16.1838 58.5869C16.4638 58.8135 16.8571 58.9269 17.3638 58.9269ZM27.71 60.5469C26.9367 60.5469 26.3167 60.3469 25.85 59.9469C25.3833 59.5469 25.15 58.9069 25.15 58.0269V46.3469H27.71V57.7669C27.71 58.0335 27.7767 58.2335 27.91 58.3669C28.0567 58.5002 28.2567 58.5669 28.51 58.5669H29.29V60.5469H27.71ZM36.6475 60.8669C35.4742 60.8669 34.4608 60.6602 33.6075 60.2469C32.7542 59.8335 32.0808 59.2602 31.5875 58.5269C31.1075 57.7802 30.8275 56.9135 30.7475 55.9269L33.3875 55.7669C33.4675 56.3802 33.6408 56.9002 33.9075 57.3269C34.1875 57.7535 34.5542 58.0802 35.0075 58.3069C35.4742 58.5202 36.0342 58.6269 36.6875 58.6269C37.2475 58.6269 37.7208 58.5602 38.1075 58.4269C38.5075 58.2802 38.8075 58.0735 39.0075 57.8069C39.2208 57.5269 39.3275 57.1869 39.3275 56.7869C39.3275 56.4269 39.2408 56.1069 39.0675 55.8269C38.8942 55.5335 38.5608 55.2735 38.0675 55.0469C37.5742 54.8069 36.8408 54.5735 35.8675 54.3469C34.6942 54.0802 33.7542 53.7802 33.0475 53.4469C32.3408 53.1002 31.8275 52.6735 31.5075 52.1669C31.1875 51.6469 31.0275 51.0002 31.0275 50.2269C31.0275 49.4002 31.2342 48.6735 31.6475 48.0469C32.0608 47.4069 32.6475 46.9135 33.4075 46.5669C34.1675 46.2069 35.0808 46.0269 36.1475 46.0269C37.2808 46.0269 38.2408 46.2335 39.0275 46.6469C39.8142 47.0469 40.4342 47.6002 40.8875 48.3069C41.3408 49.0135 41.6208 49.8269 41.7275 50.7469L39.1075 50.8669C39.0408 50.3469 38.8808 49.8935 38.6275 49.5069C38.3875 49.1202 38.0542 48.8202 37.6275 48.6069C37.2142 48.3802 36.7075 48.2669 36.1075 48.2669C35.3608 48.2669 34.7675 48.4402 34.3275 48.7869C33.9008 49.1202 33.6875 49.5669 33.6875 50.1269C33.6875 50.5135 33.7742 50.8335 33.9475 51.0869C34.1342 51.3402 34.4608 51.5602 34.9275 51.7469C35.3942 51.9202 36.0475 52.1069 36.8875 52.3069C38.1542 52.5735 39.1608 52.9135 39.9075 53.3269C40.6542 53.7402 41.1875 54.2202 41.5075 54.7669C41.8275 55.3135 41.9875 55.9402 41.9875 56.6469C41.9875 57.5135 41.7675 58.2669 41.3275 58.9069C40.8875 59.5335 40.2675 60.0202 39.4675 60.3669C38.6675 60.7002 37.7275 60.8669 36.6475 60.8669ZM49.2627 60.7869C48.2093 60.7869 47.2827 60.5602 46.4827 60.1069C45.696 59.6402 45.0827 58.9869 44.6427 58.1469C44.216 57.3069 44.0027 56.3269 44.0027 55.2069C44.0027 54.0735 44.216 53.0935 44.6427 52.2669C45.0827 51.4269 45.696 50.7802 46.4827 50.3269C47.2827 49.8602 48.2093 49.6269 49.2627 49.6269C50.316 49.6269 51.236 49.8602 52.0227 50.3269C52.8093 50.7802 53.416 51.4269 53.8427 52.2669C54.2827 53.0935 54.5027 54.0735 54.5027 55.2069C54.5027 56.3269 54.2827 57.3069 53.8427 58.1469C53.416 58.9869 52.8093 59.6402 52.0227 60.1069C51.236 60.5602 50.316 60.7869 49.2627 60.7869ZM49.2627 58.7069C50.0893 58.7069 50.7227 58.4002 51.1627 57.7869C51.616 57.1735 51.8427 56.3135 51.8427 55.2069C51.8427 54.1135 51.616 53.2602 51.1627 52.6469C50.7227 52.0202 50.0893 51.7069 49.2627 51.7069C48.436 51.7069 47.796 52.0202 47.3427 52.6469C46.8893 53.2602 46.6627 54.1135 46.6627 55.2069C46.6627 56.3135 46.8893 57.1735 47.3427 57.7869C47.796 58.4002 48.436 58.7069 49.2627 58.7069ZM61.1181 60.7869C60.0648 60.7869 59.1381 60.5602 58.3381 60.1069C57.5515 59.6402 56.9381 58.9869 56.4981 58.1469C56.0715 57.3069 55.8581 56.3269 55.8581 55.2069C55.8581 54.0735 56.0715 53.0935 56.4981 52.2669C56.9381 51.4269 57.5515 50.7802 58.3381 50.3269C59.1381 49.8602 60.0648 49.6269 61.1181 49.6269C62.1715 49.6269 63.0915 49.8602 63.8781 50.3269C64.6648 50.7802 65.2715 51.4269 65.6981 52.2669C66.1381 53.0935 66.3581 54.0735 66.3581 55.2069C66.3581 56.3269 66.1381 57.3069 65.6981 58.1469C65.2715 58.9869 64.6648 59.6402 63.8781 60.1069C63.0915 60.5602 62.1715 60.7869 61.1181 60.7869ZM61.1181 58.7069C61.9448 58.7069 62.5781 58.4002 63.0181 57.7869C63.4715 57.1735 63.6981 56.3135 63.6981 55.2069C63.6981 54.1135 63.4715 53.2602 63.0181 52.6469C62.5781 52.0202 61.9448 51.7069 61.1181 51.7069C60.2915 51.7069 59.6515 52.0202 59.1981 52.6469C58.7448 53.2602 58.5181 54.1135 58.5181 55.2069C58.5181 56.3135 58.7448 57.1735 59.1981 57.7869C59.6515 58.4002 60.2915 58.7069 61.1181 58.7069ZM72.9736 60.7869C71.9069 60.7869 70.9803 60.5602 70.1936 60.1069C69.4069 59.6402 68.7936 58.9869 68.3536 58.1469C67.9269 57.3069 67.7136 56.3269 67.7136 55.2069C67.7136 54.0869 67.9269 53.1135 68.3536 52.2869C68.7936 51.4469 69.4069 50.7935 70.1936 50.3269C70.9803 49.8602 71.9069 49.6269 72.9736 49.6269C73.8803 49.6269 74.6869 49.7869 75.3936 50.1069C76.1003 50.4269 76.6736 50.8869 77.1136 51.4869C77.5669 52.0735 77.8469 52.7935 77.9536 53.6469L75.3136 53.7869C75.2069 53.1069 74.9403 52.5935 74.5136 52.2469C74.1003 51.8869 73.5869 51.7069 72.9736 51.7069C72.1469 51.7069 71.5069 52.0202 71.0536 52.6469C70.6003 53.2602 70.3736 54.1135 70.3736 55.2069C70.3736 56.3135 70.6003 57.1735 71.0536 57.7869C71.5069 58.4002 72.1469 58.7069 72.9736 58.7069C73.6003 58.7069 74.1203 58.5269 74.5336 58.1669C74.9603 57.8069 75.2203 57.2469 75.3136 56.4869L77.9536 56.6069C77.8469 57.4602 77.5736 58.2002 77.1336 58.8269C76.6936 59.4535 76.1203 59.9402 75.4136 60.2869C74.7069 60.6202 73.8936 60.7869 72.9736 60.7869ZM79.7398 60.5469V46.3469H82.2998V52.3069H81.9798C82.0865 51.6935 82.2998 51.1935 82.6198 50.8069C82.9398 50.4069 83.3332 50.1135 83.7998 49.9269C84.2665 49.7269 84.7798 49.6269 85.3398 49.6269C86.1265 49.6269 86.7865 49.8002 87.3198 50.1469C87.8665 50.4802 88.2732 50.9535 88.5398 51.5669C88.8198 52.1802 88.9598 52.8869 88.9598 53.6869V60.5469H86.3998V54.3069C86.3998 53.4402 86.2532 52.7935 85.9598 52.3669C85.6665 51.9269 85.2065 51.7069 84.5798 51.7069C83.8865 51.7069 83.3332 51.9335 82.9198 52.3869C82.5065 52.8402 82.2998 53.5002 82.2998 54.3669V60.5469H79.7398ZM94.6172 60.7869C93.4972 60.7869 92.5972 60.5335 91.9172 60.0269C91.2372 59.5069 90.8972 58.7869 90.8972 57.8669C90.8972 56.9469 91.1839 56.2269 91.7572 55.7069C92.3305 55.1869 93.2039 54.8135 94.3772 54.5869L97.9172 53.8869C97.9172 53.1269 97.7439 52.5602 97.3972 52.1869C97.0505 51.8002 96.5372 51.6069 95.8572 51.6069C95.2439 51.6069 94.7572 51.7535 94.3972 52.0469C94.0505 52.3269 93.8105 52.7335 93.6772 53.2669L91.0772 53.1469C91.2905 52.0135 91.8105 51.1469 92.6372 50.5469C93.4639 49.9335 94.5372 49.6269 95.8572 49.6269C97.3772 49.6269 98.5239 50.0135 99.2972 50.7869C100.084 51.5469 100.477 52.6402 100.477 54.0669V57.9469C100.477 58.2269 100.524 58.4202 100.617 58.5269C100.724 58.6335 100.877 58.6869 101.077 58.6869H101.417V60.5469C101.337 60.5735 101.204 60.5935 101.017 60.6069C100.844 60.6202 100.664 60.6269 100.477 60.6269C100.037 60.6269 99.6439 60.5602 99.2972 60.4269C98.9505 60.2802 98.6839 60.0335 98.4972 59.6869C98.3105 59.3269 98.2172 58.8402 98.2172 58.2269L98.4372 58.3869C98.3305 58.8535 98.0972 59.2735 97.7372 59.6469C97.3905 60.0069 96.9505 60.2869 96.4172 60.4869C95.8839 60.6869 95.2839 60.7869 94.6172 60.7869ZM95.1372 58.9269C95.7105 58.9269 96.2039 58.8135 96.6172 58.5869C97.0305 58.3602 97.3505 58.0469 97.5772 57.6469C97.8039 57.2469 97.9172 56.7735 97.9172 56.2269V55.6269L95.1572 56.1869C94.5839 56.3069 94.1705 56.4869 93.9172 56.7269C93.6772 56.9535 93.5572 57.2535 93.5572 57.6269C93.5572 58.0402 93.6905 58.3602 93.9572 58.5869C94.2372 58.8135 94.6305 58.9269 95.1372 58.9269ZM102.963 60.5469V46.3469H105.523V54.6869L109.903 49.8669H113.063L108.883 54.3069L113.203 60.5469H110.323L107.203 55.8269L105.523 57.6069V60.5469H102.963Z" fill="#3291D1"/>
</svg>
