<svg width="24" height="24" viewBox="0 0 24 24" fill="none" xmlns="http://www.w3.org/2000/svg">
<g clip-path="url(#clip0_447_6787)">
<mask id="mask0_447_6787" style="mask-type:luminance" maskUnits="userSpaceOnUse" x="0" y="0" width="24" height="24">
<path d="M0 1.90735e-06H24V24H0V1.90735e-06Z" fill="white"/>
</mask>
<g mask="url(#mask0_447_6787)">
<path d="M0.703125 6.32813H3.51562V13.8281H0.703125V6.32813Z" stroke="#079455" stroke-width="1.2" stroke-miterlimit="10" stroke-linecap="round" stroke-linejoin="round"/>
</g>
<path d="M7.82812 11.9531H3.51562V8.20314H7.82812" stroke="#079455" stroke-width="1.2" stroke-miterlimit="10" stroke-linecap="round" stroke-linejoin="round"/>
<mask id="mask1_447_6787" style="mask-type:luminance" maskUnits="userSpaceOnUse" x="0" y="0" width="24" height="24">
<path d="M0 1.90735e-06H24V24H0V1.90735e-06Z" fill="white"/>
</mask>
<g mask="url(#mask1_447_6787)">
<path d="M15.3281 8.20314H17.6719C20.7785 8.20314 23.2969 10.7215 23.2969 13.8281V15.4688H19.5469V13.8281C19.5469 12.7926 18.7074 11.9531 17.6719 11.9531H15.3281" stroke="#079455" stroke-width="1.2" stroke-miterlimit="10" stroke-linecap="round" stroke-linejoin="round"/>
<path d="M9.23437 6.32813H13.9219C14.6985 6.32813 15.3281 6.95775 15.3281 7.73438V12.4219C15.3281 13.1985 14.6985 13.8281 13.9219 13.8281H9.23437C8.45775 13.8281 7.82812 13.1985 7.82812 12.4219V7.73438C7.82812 6.95775 8.45775 6.32813 9.23437 6.32813Z" stroke="#079455" stroke-width="1.2" stroke-miterlimit="10" stroke-linecap="round" stroke-linejoin="round"/>
<path d="M21.4219 18.3059L19.9246 20.3023C18.9992 21.5361 19.8796 23.2969 21.4219 23.2969C22.9642 23.2969 23.8446 21.5361 22.9192 20.3023L21.4219 18.3059Z" stroke="#079455" stroke-width="1.2" stroke-miterlimit="10" stroke-linecap="round" stroke-linejoin="round"/>
<path d="M9.70312 6.32813H13.4531V3.51563H9.70312V6.32813Z" stroke="#079455" stroke-width="1.2" stroke-miterlimit="10" stroke-linecap="round" stroke-linejoin="round"/>
<path d="M14.8594 0.703125H8.29687C7.52025 0.703125 6.89062 1.33275 6.89062 2.10938C6.89062 2.886 7.52025 3.51562 8.29687 3.51562H14.8594C15.636 3.51562 16.2656 2.886 16.2656 2.10938C16.2656 1.33275 15.636 0.703125 14.8594 0.703125Z" stroke="#079455" stroke-width="1.2" stroke-miterlimit="10" stroke-linecap="round" stroke-linejoin="round"/>
</g>
</g>
<defs>
<clipPath id="clip0_447_6787">
<rect width="24" height="24" fill="white"/>
</clipPath>
</defs>
</svg>
