<svg width="23" height="35" viewBox="0 0 23 35" fill="none" xmlns="http://www.w3.org/2000/svg">
<path d="M22.8018 23.1461C22.8018 29.4428 17.6976 34.547 11.4009 34.547C5.10417 34.547 0 29.4428 0 23.1461C0 15.7531 7.73502 9.71754 10.5846 0.598296C10.8339 -0.199432 11.9679 -0.199432 12.2172 0.598296C15.0667 9.71754 22.8018 15.7531 22.8018 23.1461Z" fill="#3291D1"/>
<path d="M9.7835 30.4733C9.56037 31.2648 8.71419 31.7103 7.93978 31.4336C7.80309 31.3847 7.66852 31.3299 7.53615 31.2697C6.65939 30.8707 6.42463 29.7331 7.06903 29.0171L7.08559 28.9987C7.5236 28.5119 8.23621 28.3862 8.81491 28.6926C8.88234 28.7283 8.95247 28.7638 9.02491 28.7985C9.65137 29.0982 9.97191 29.8048 9.7835 30.4733Z" fill="#EBF4FA"/>
<path d="M5.62452 27.4899L5.60667 27.5036C4.94123 28.0116 3.97588 27.773 3.62473 27.013C3.08227 25.8391 2.76065 24.5764 2.68858 23.3002C2.57008 21.2062 3.12373 19.0835 4.25997 17.2734C4.25997 17.2734 2.93552 22.0075 5.84383 25.622C6.30748 26.1982 6.21234 27.0411 5.62452 27.4899Z" fill="#EBF4FA"/>
</svg>
